<mxfile host="app.diagrams.net" agent="Mozilla/5.0 (Macintosh; Intel Mac OS X 10_15_7) AppleWebKit/537.36 (KHTML, like Gecko) Chrome/130.0.0.0 Safari/537.36" version="24.8.3">
  <diagram name="Page-1" id="cBU3FoFDfy3wO6Mudj8p">
    <mxGraphModel dx="1129" dy="912" grid="1" gridSize="10" guides="1" tooltips="1" connect="1" arrows="1" fold="1" page="1" pageScale="1" pageWidth="827" pageHeight="1169" math="0" shadow="0">
      <root>
        <mxCell id="0" />
        <mxCell id="1" parent="0" />
        <mxCell id="6XweyelYUrj_YVhZijfG-1" value="EDI_TRANSFER_HISTORY" style="swimlane;fontStyle=1;align=center;verticalAlign=middle;childLayout=stackLayout;horizontal=1;startSize=29;horizontalStack=0;resizeParent=1;resizeParentMax=0;resizeLast=0;collapsible=0;marginBottom=0;html=1;whiteSpace=wrap;" vertex="1" parent="1">
          <mxGeometry x="40" y="410" width="190" height="79" as="geometry" />
        </mxCell>
        <mxCell id="6XweyelYUrj_YVhZijfG-2" value="&amp;lt;&amp;lt;stereotype1&amp;gt;&amp;gt;" style="text;html=1;strokeColor=none;fillColor=none;align=center;verticalAlign=middle;spacingLeft=4;spacingRight=4;overflow=hidden;rotatable=0;points=[[0,0.5],[1,0.5]];portConstraint=eastwest;whiteSpace=wrap;" vertex="1" parent="6XweyelYUrj_YVhZijfG-1">
          <mxGeometry y="29" width="190" height="25" as="geometry" />
        </mxCell>
        <mxCell id="6XweyelYUrj_YVhZijfG-3" value="stereotype property 1" style="text;html=1;strokeColor=none;fillColor=none;align=left;verticalAlign=middle;spacingLeft=4;spacingRight=4;overflow=hidden;rotatable=0;points=[[0,0.5],[1,0.5]];portConstraint=eastwest;whiteSpace=wrap;" vertex="1" parent="6XweyelYUrj_YVhZijfG-1">
          <mxGeometry y="54" width="190" height="25" as="geometry" />
        </mxCell>
        <mxCell id="6XweyelYUrj_YVhZijfG-4" value="EDI_TRANSPORT_ORDER_HISTORY" style="swimlane;fontStyle=1;align=center;verticalAlign=middle;childLayout=stackLayout;horizontal=1;startSize=29;horizontalStack=0;resizeParent=1;resizeParentMax=0;resizeLast=0;collapsible=0;marginBottom=0;html=1;whiteSpace=wrap;" vertex="1" parent="1">
          <mxGeometry x="960" y="110" width="240" height="79" as="geometry" />
        </mxCell>
        <mxCell id="6XweyelYUrj_YVhZijfG-5" value="&amp;lt;&amp;lt;stereotype1&amp;gt;&amp;gt;" style="text;html=1;strokeColor=none;fillColor=none;align=center;verticalAlign=middle;spacingLeft=4;spacingRight=4;overflow=hidden;rotatable=0;points=[[0,0.5],[1,0.5]];portConstraint=eastwest;whiteSpace=wrap;" vertex="1" parent="6XweyelYUrj_YVhZijfG-4">
          <mxGeometry y="29" width="240" height="25" as="geometry" />
        </mxCell>
        <mxCell id="6XweyelYUrj_YVhZijfG-6" value="stereotype property 1" style="text;html=1;strokeColor=none;fillColor=none;align=left;verticalAlign=middle;spacingLeft=4;spacingRight=4;overflow=hidden;rotatable=0;points=[[0,0.5],[1,0.5]];portConstraint=eastwest;whiteSpace=wrap;" vertex="1" parent="6XweyelYUrj_YVhZijfG-4">
          <mxGeometry y="54" width="240" height="25" as="geometry" />
        </mxCell>
        <mxCell id="6XweyelYUrj_YVhZijfG-7" value="EDI_TRANSPORT_ORDER_ITEM_HISTORY" style="swimlane;fontStyle=1;align=center;verticalAlign=middle;childLayout=stackLayout;horizontal=1;startSize=29;horizontalStack=0;resizeParent=1;resizeParentMax=0;resizeLast=0;collapsible=0;marginBottom=0;html=1;whiteSpace=wrap;" vertex="1" parent="1">
          <mxGeometry x="870" y="495" width="340" height="90" as="geometry" />
        </mxCell>
        <mxCell id="6XweyelYUrj_YVhZijfG-8" value="&amp;lt;&amp;lt;stereotype1&amp;gt;&amp;gt;" style="text;html=1;strokeColor=none;fillColor=none;align=center;verticalAlign=middle;spacingLeft=4;spacingRight=4;overflow=hidden;rotatable=0;points=[[0,0.5],[1,0.5]];portConstraint=eastwest;whiteSpace=wrap;" vertex="1" parent="6XweyelYUrj_YVhZijfG-7">
          <mxGeometry y="29" width="340" height="25" as="geometry" />
        </mxCell>
        <mxCell id="6XweyelYUrj_YVhZijfG-9" value="stereotype property 1" style="text;html=1;strokeColor=none;fillColor=none;align=left;verticalAlign=middle;spacingLeft=4;spacingRight=4;overflow=hidden;rotatable=0;points=[[0,0.5],[1,0.5]];portConstraint=eastwest;whiteSpace=wrap;" vertex="1" parent="6XweyelYUrj_YVhZijfG-7">
          <mxGeometry y="54" width="340" height="36" as="geometry" />
        </mxCell>
        <mxCell id="6XweyelYUrj_YVhZijfG-13" style="edgeStyle=orthogonalEdgeStyle;rounded=0;orthogonalLoop=1;jettySize=auto;html=1;entryX=0.75;entryY=0;entryDx=0;entryDy=0;" edge="1" parent="1" source="6XweyelYUrj_YVhZijfG-10" target="6XweyelYUrj_YVhZijfG-1">
          <mxGeometry relative="1" as="geometry" />
        </mxCell>
        <mxCell id="6XweyelYUrj_YVhZijfG-14" style="edgeStyle=orthogonalEdgeStyle;rounded=0;orthogonalLoop=1;jettySize=auto;html=1;" edge="1" parent="1" source="6XweyelYUrj_YVhZijfG-10" target="6XweyelYUrj_YVhZijfG-5">
          <mxGeometry relative="1" as="geometry" />
        </mxCell>
        <mxCell id="6XweyelYUrj_YVhZijfG-10" value="&lt;span style=&quot;color: rgb(23, 43, 77); font-family: -apple-system, &amp;quot;system-ui&amp;quot;, &amp;quot;Segoe UI&amp;quot;, Roboto, Oxygen, Ubuntu, &amp;quot;Fira Sans&amp;quot;, &amp;quot;Droid Sans&amp;quot;, &amp;quot;Helvetica Neue&amp;quot;, sans-serif; font-size: 14px; font-weight: 400; letter-spacing: -0.07px; text-align: left; white-space-collapse: preserve; background-color: rgb(255, 255, 255);&quot;&gt;X_REF_EDI_TRANSFER_HISTORY_EDI_TRANSPORT_ORDER_HISTORY&lt;/span&gt;" style="swimlane;fontStyle=1;align=center;verticalAlign=middle;childLayout=stackLayout;horizontal=1;startSize=29;horizontalStack=0;resizeParent=1;resizeParentMax=0;resizeLast=0;collapsible=0;marginBottom=0;html=1;whiteSpace=wrap;" vertex="1" parent="1">
          <mxGeometry x="380" y="239" width="420" height="79" as="geometry" />
        </mxCell>
        <mxCell id="6XweyelYUrj_YVhZijfG-11" value="&amp;lt;&amp;lt;stereotype1&amp;gt;&amp;gt;" style="text;html=1;strokeColor=none;fillColor=none;align=center;verticalAlign=middle;spacingLeft=4;spacingRight=4;overflow=hidden;rotatable=0;points=[[0,0.5],[1,0.5]];portConstraint=eastwest;whiteSpace=wrap;" vertex="1" parent="6XweyelYUrj_YVhZijfG-10">
          <mxGeometry y="29" width="420" height="25" as="geometry" />
        </mxCell>
        <mxCell id="6XweyelYUrj_YVhZijfG-12" value="stereotype property 1" style="text;html=1;strokeColor=none;fillColor=none;align=left;verticalAlign=middle;spacingLeft=4;spacingRight=4;overflow=hidden;rotatable=0;points=[[0,0.5],[1,0.5]];portConstraint=eastwest;whiteSpace=wrap;" vertex="1" parent="6XweyelYUrj_YVhZijfG-10">
          <mxGeometry y="54" width="420" height="25" as="geometry" />
        </mxCell>
        <mxCell id="6XweyelYUrj_YVhZijfG-21" style="edgeStyle=orthogonalEdgeStyle;rounded=0;orthogonalLoop=1;jettySize=auto;html=1;entryX=0.847;entryY=1.04;entryDx=0;entryDy=0;entryPerimeter=0;" edge="1" parent="1" source="6XweyelYUrj_YVhZijfG-8" target="6XweyelYUrj_YVhZijfG-3">
          <mxGeometry relative="1" as="geometry">
            <mxPoint x="310" y="470" as="targetPoint" />
          </mxGeometry>
        </mxCell>
        <mxCell id="6XweyelYUrj_YVhZijfG-25" value="scenar merge&lt;div&gt;- EDI_TRANSFER_HISTORY je vazano na vice&amp;nbsp;&lt;span style=&quot;text-align: center; background-color: initial;&quot;&gt;EDI_TRANSPORT_ORDER_HISTORY&lt;/span&gt;&lt;/div&gt;&lt;div&gt;&lt;span style=&quot;text-align: center; background-color: initial;&quot;&gt;&lt;br&gt;&lt;/span&gt;&lt;/div&gt;&lt;div&gt;&lt;span style=&quot;text-align: center; background-color: initial;&quot;&gt;scenar split&lt;/span&gt;&lt;/div&gt;&lt;div&gt;&lt;span style=&quot;text-align: center; background-color: initial;&quot;&gt;-&amp;nbsp;&lt;/span&gt;&lt;span style=&quot;background-color: initial;&quot;&gt;EDI_TRANSFER_HISTORY vaze vice&amp;nbsp;&lt;/span&gt;&lt;span style=&quot;background-color: initial; text-align: center;&quot;&gt;EDI_TRANSPORT_ORDER_HISTORY&lt;/span&gt;&lt;/div&gt;" style="text;html=1;align=left;verticalAlign=top;whiteSpace=wrap;rounded=0;" vertex="1" parent="1">
          <mxGeometry x="250" y="50" width="560" height="100" as="geometry" />
        </mxCell>
        <mxCell id="6XweyelYUrj_YVhZijfG-26" value="scenar merge&lt;div&gt;- vice EDI_TRANSFER_HISTORY je vazano na jednu&amp;nbsp;&lt;span style=&quot;text-align: center; background-color: initial;&quot;&gt;EDI_TRANSPORT_ORDER_ITEM_HISTORY&lt;/span&gt;&lt;/div&gt;&lt;div&gt;&lt;span style=&quot;text-align: center; background-color: initial;&quot;&gt;&lt;br&gt;&lt;/span&gt;&lt;/div&gt;&lt;div&gt;&lt;span style=&quot;text-align: center; background-color: initial;&quot;&gt;scenar split&lt;/span&gt;&lt;/div&gt;&lt;div&gt;&lt;span style=&quot;text-align: center; background-color: initial;&quot;&gt;- jedna&amp;nbsp;&lt;/span&gt;&lt;span style=&quot;background-color: initial;&quot;&gt;EDI_TRANSFER_HISTORY je vazana na vice&amp;nbsp;&lt;/span&gt;&lt;span style=&quot;background-color: initial; text-align: center;&quot;&gt;EDI_TRANSPORT_ORDER_HISTORY&lt;/span&gt;&lt;/div&gt;" style="text;html=1;align=left;verticalAlign=top;whiteSpace=wrap;rounded=0;" vertex="1" parent="1">
          <mxGeometry x="250" y="560" width="560" height="100" as="geometry" />
        </mxCell>
      </root>
    </mxGraphModel>
  </diagram>
</mxfile>
